<svg width="41" height="41" viewBox="0 0 41 41" fill="none" xmlns="http://www.w3.org/2000/svg">
<path d="M20.5 41C31.8218 41 41 31.8218 41 20.5C41 9.17816 31.8218 0 20.5 0C9.17816 0 0 9.17816 0 20.5C0 31.8218 9.17816 41 20.5 41Z" fill="#005983"/>
<path d="M32.2605 22.1183V30.3183H27.5131V22.6577C27.5131 20.7156 26.8658 19.4209 25.1395 19.4209C23.8447 19.4209 23.0895 20.2841 22.7658 21.1472C22.6579 21.4709 22.6579 21.9025 22.6579 22.3341V30.3183H17.9105C17.9105 30.3183 18.0184 17.4788 17.9105 16.0762H22.6579V18.1262C23.3053 17.1551 24.3842 15.7525 26.9737 15.7525C29.9947 15.7525 32.2605 17.8025 32.2605 22.1183ZM12.8395 9.1709C11.221 9.1709 10.1421 10.2498 10.1421 11.6525C10.1421 13.0551 11.221 14.1341 12.7316 14.1341C14.35 14.1341 15.4289 13.0551 15.4289 11.6525C15.5368 10.2498 14.4579 9.1709 12.8395 9.1709ZM10.4658 30.3183H15.2131V16.0762H10.4658V30.3183Z" fill="#F1F2F2"/>
</svg>
